<svg width="539" height="143" viewBox="0 0 539 143" fill="none" xmlns="http://www.w3.org/2000/svg">
<path d="M170.831 89.928C173.391 89.928 175.524 88.8613 177.231 86.728C179.023 84.5947 180.473 81.992 181.583 78.92C182.777 75.848 183.631 72.648 184.143 69.32C184.655 65.992 184.911 63.0907 184.911 60.616C184.911 58.312 184.527 56.392 183.759 54.856C182.991 53.2347 181.327 52.424 178.767 52.424H173.007L164.943 89.928H170.831ZM163.151 98.12L157.391 125H129.743L147.023 43.72H176.591C181.455 43.72 185.892 43.976 189.903 44.488C193.913 45 197.369 46.024 200.271 47.56C203.172 49.096 205.433 51.3147 207.055 54.216C208.676 57.032 209.487 60.8293 209.487 65.608C209.487 70.0453 208.761 74.2693 207.311 78.28C205.945 82.2053 203.684 85.6613 200.527 88.648C197.455 91.5493 193.444 93.8533 188.495 95.56C183.545 97.2667 177.529 98.12 170.447 98.12H163.151ZM216.861 69.96H237.725L239.645 79.56H240.541C242.503 76.488 245.021 73.8853 248.093 71.752C251.165 69.6187 255.218 68.552 260.253 68.552C260.594 68.552 261.106 68.5947 261.789 68.68C262.557 68.68 263.367 68.808 264.221 69.064C265.159 69.2347 266.098 69.5333 267.037 69.96C268.061 70.3013 269.042 70.8133 269.981 71.496L264.349 97.864H250.397C250.226 92.5733 249.757 88.904 248.989 86.856C248.221 84.7227 246.983 83.656 245.277 83.656C244.423 83.656 243.485 83.8693 242.461 84.296C241.522 84.6373 240.541 85.448 239.517 86.728L231.325 125H205.213L216.861 69.96ZM308.688 68.552C318.842 68.552 326.224 70.344 330.832 73.928C335.696 77.6827 338.128 83.912 338.128 92.616C338.128 97.992 337.232 102.856 335.44 107.208C333.648 111.475 331.13 115.016 327.888 117.832C321.402 123.293 312.016 126.024 299.728 126.024C289.232 126.024 281.722 124.019 277.2 120.008C272.336 115.827 269.904 109.555 269.904 101.192C269.904 95.6453 271.013 90.6107 273.232 86.088C275.536 81.5653 278.821 77.8107 283.088 74.824C289.317 70.6427 297.85 68.552 308.688 68.552ZM299.984 117.32C302.117 117.32 303.952 116.125 305.488 113.736C307.109 111.347 308.389 108.445 309.328 105.032C310.266 101.533 310.949 97.9493 311.376 94.28C311.888 90.5253 312.144 87.2827 312.144 84.552C312.144 82.1627 311.888 80.3707 311.376 79.176C310.949 77.896 309.968 77.256 308.432 77.256C306.128 77.256 304.122 78.4933 302.416 80.968C300.794 83.4427 299.472 86.3867 298.448 89.8C297.424 93.2133 296.656 96.712 296.144 100.296C295.717 103.88 295.504 106.781 295.504 109C295.504 114.547 296.997 117.32 299.984 117.32ZM345.506 69.96C348.663 69.2773 351.436 68.5093 353.826 67.656C356.215 66.8027 358.391 65.736 360.354 64.456C362.402 63.176 364.322 61.5973 366.114 59.72C367.991 57.8427 369.996 55.5387 372.13 52.808H385.314L381.602 69.96H391.586L389.922 78.536H379.81L374.562 103.496C374.135 105.459 373.794 107.208 373.538 108.744C373.282 110.28 373.154 111.475 373.154 112.328C373.154 114.035 373.751 115.101 374.946 115.528C376.226 115.955 378.572 116.168 381.986 116.168L380.066 125C379.468 125.171 378.53 125.299 377.25 125.384C376.055 125.469 374.69 125.555 373.154 125.64C371.703 125.811 370.167 125.896 368.546 125.896C367.01 125.981 365.644 126.024 364.45 126.024C362.316 126.024 360.226 125.853 358.178 125.512C356.13 125.256 354.295 124.701 352.674 123.848C351.052 122.909 349.73 121.587 348.706 119.88C347.767 118.173 347.298 115.869 347.298 112.968C347.298 111.944 347.34 110.664 347.426 109.128C347.596 107.592 347.895 105.885 348.322 104.008L353.698 78.536H343.714L345.506 69.96ZM416.522 99.272C416.18 101.149 415.924 102.941 415.754 104.648C415.668 106.355 415.626 107.891 415.626 109.256C415.626 110.024 415.668 110.877 415.754 111.816C415.839 112.755 416.01 113.651 416.266 114.504C416.607 115.272 417.034 115.955 417.546 116.552C418.143 117.064 418.954 117.32 419.978 117.32C420.746 117.32 421.599 117.064 422.538 116.552C423.562 116.04 424.543 115.315 425.482 114.376C426.506 113.437 427.444 112.285 428.298 110.92C429.236 109.555 429.962 108.019 430.474 106.312H451.466L448.138 120.008C446.431 121.117 444.468 122.056 442.25 122.824C440.031 123.592 437.684 124.232 435.21 124.744C432.735 125.171 430.218 125.469 427.658 125.64C425.098 125.896 422.666 126.024 420.362 126.024C416.095 126.024 412.127 125.64 408.458 124.872C404.788 124.104 401.588 122.781 398.858 120.904C396.127 119.027 393.951 116.552 392.33 113.48C390.794 110.323 390.026 106.44 390.026 101.832C390.026 97.6507 390.666 93.5547 391.946 89.544C393.311 85.5333 395.53 81.992 398.602 78.92C401.759 75.7627 405.94 73.2453 411.146 71.368C416.436 69.4907 423.007 68.552 430.858 68.552C439.391 68.552 445.791 69.8747 450.058 72.52C454.41 75.1653 456.586 79.304 456.586 84.936C456.586 87.24 456.244 89.7573 455.562 92.488C454.879 95.1333 453.855 97.3947 452.49 99.272H416.522ZM433.546 84.04C433.546 81.3947 433.119 79.6027 432.266 78.664C431.412 77.7253 430.388 77.256 429.194 77.256C427.828 77.256 426.548 77.7253 425.354 78.664C424.244 79.5173 423.22 80.712 422.282 82.248C421.343 83.6987 420.49 85.4053 419.722 87.368C418.954 89.2453 418.314 91.2507 417.802 93.384H432.394C432.564 92.36 432.735 91.2933 432.906 90.184C433.076 89.2453 433.204 88.2213 433.29 87.112C433.46 86.0027 433.546 84.9787 433.546 84.04ZM498.938 68.552C509.092 68.552 516.474 70.344 521.082 73.928C525.946 77.6827 528.378 83.912 528.378 92.616C528.378 97.992 527.482 102.856 525.69 107.208C523.898 111.475 521.38 115.016 518.138 117.832C511.652 123.293 502.266 126.024 489.978 126.024C479.482 126.024 471.972 124.019 467.45 120.008C462.586 115.827 460.154 109.555 460.154 101.192C460.154 95.6453 461.263 90.6107 463.482 86.088C465.786 81.5653 469.071 77.8107 473.338 74.824C479.567 70.6427 488.1 68.552 498.938 68.552ZM490.234 117.32C492.367 117.32 494.202 116.125 495.738 113.736C497.359 111.347 498.639 108.445 499.578 105.032C500.516 101.533 501.199 97.9493 501.626 94.28C502.138 90.5253 502.394 87.2827 502.394 84.552C502.394 82.1627 502.138 80.3707 501.626 79.176C501.199 77.896 500.218 77.256 498.682 77.256C496.378 77.256 494.372 78.4933 492.666 80.968C491.044 83.4427 489.722 86.3867 488.698 89.8C487.674 93.2133 486.906 96.712 486.394 100.296C485.967 103.88 485.754 106.781 485.754 109C485.754 114.547 487.247 117.32 490.234 117.32Z" fill="#3F51B5"/>
<path d="M57.1132 13.0061C56.6853 13.0372 56.2679 13.2775 56.06 13.6631C55.8521 14.0486 55.8157 14.512 55.8734 15.0692C56.1071 17.2977 57.9403 21.3541 61.9528 28.133C64.0789 31.7239 65.5631 35.0624 66.6254 38.2118C63.2154 36.6681 59.6445 35.2122 56.0418 33.8956C43.918 29.4651 31.7471 26.5333 25.9287 26.4848C24.4749 26.4727 23.4141 26.5883 22.7281 27.1015C22.3852 27.3581 22.1606 27.789 22.1955 28.2252C22.2258 28.6614 22.4519 29.0727 22.8025 29.5102C24.2093 31.2599 27.9501 33.6827 35.0083 37.2264C38.7446 39.1031 41.8116 41.1138 44.4172 43.1907C40.7083 43.7273 36.9189 44.4227 33.1721 45.2537C20.5671 48.0502 8.73464 52.1328 3.81316 55.2231C2.58393 55.9956 1.75078 56.6635 1.4503 57.4647C1.29855 57.8654 1.35925 58.3496 1.61875 58.6979C1.88433 59.0463 2.28952 59.2739 2.82219 59.4527C4.95589 60.1681 9.42361 60.1888 17.2846 59.3727C21.4504 58.9402 25.1244 58.9861 28.4433 59.3319C25.6146 61.7785 22.7995 64.4023 20.0997 67.1172C11.014 76.2529 3.27594 86.055 0.814443 91.3029C0.19831 92.6149 -0.134038 93.626 0.0511053 94.4609C0.14216 94.8784 0.442639 95.2559 0.8539 95.4059C1.26668 95.5555 1.73864 95.5253 2.28497 95.3878C4.46723 94.8417 8.23839 92.4625 14.4073 87.5449C17.6777 84.9389 20.7887 82.9953 23.7707 81.4999C22.7206 85.0808 21.7766 88.8028 20.9799 92.5411C18.2984 105.115 17.1131 117.522 17.8947 123.262C18.0889 124.696 18.3575 125.73 18.9646 126.333C19.2681 126.635 19.7279 126.792 20.1574 126.696C20.5869 126.599 20.9662 126.321 21.3502 125.912C22.8905 124.278 24.7647 120.248 27.2839 112.791C28.6193 108.841 30.187 105.533 31.8806 102.672C32.9429 106.248 34.1752 109.887 35.5349 113.459C40.1104 125.48 45.8483 136.556 49.6195 140.964C50.5634 142.066 51.3525 142.789 52.1918 142.97C52.6106 143.06 53.0826 142.947 53.3906 142.635C53.7002 142.324 53.8672 141.884 53.9688 141.333C54.3771 139.13 53.764 134.729 51.8336 127.099C50.8108 123.057 50.3282 119.43 50.2007 116.11C53.0355 118.549 56.0479 120.953 59.1331 123.227C69.5118 130.878 80.3594 137.102 85.9273 138.78C87.3204 139.2 88.3721 139.385 89.1764 139.086C89.5786 138.936 89.914 138.586 90.0035 138.158C90.0946 137.73 90.0035 137.276 89.785 136.758C88.9306 134.685 86.0229 131.303 80.2546 125.924C77.1983 123.075 74.8293 120.286 72.9187 117.562C76.6277 118.087 80.4656 118.485 84.2944 118.738C97.1816 119.589 109.685 118.992 115.282 117.407C116.681 117.01 117.669 116.599 118.182 115.914C118.44 115.572 118.529 115.096 118.374 114.687C118.217 114.278 117.89 113.948 117.429 113.627C115.587 112.342 111.303 111.066 103.528 109.644C99.4109 108.892 95.9038 107.818 92.8186 106.556C96.2225 105.002 99.6674 103.274 103.024 101.427C114.327 95.2091 124.525 87.9771 128.372 83.632C129.333 82.5458 129.938 81.6667 129.999 80.8141C130.014 80.3878 129.847 79.9387 129.495 79.679C129.142 79.4193 128.686 79.3207 128.123 79.2986C125.873 79.211 121.581 80.4365 114.268 83.4247C110.395 85.0078 106.859 86.0013 103.575 86.5999C105.597 83.4579 107.553 80.1501 109.377 76.7861C115.508 65.4729 120.155 53.9002 121.03 48.1747C121.25 46.7434 121.288 45.6799 120.874 44.9303C120.668 44.5555 120.271 44.2726 119.831 44.2446C119.393 44.2165 118.956 44.3754 118.472 44.6595C116.532 45.7957 113.587 49.1424 109.057 55.5912C106.659 59.005 104.22 61.735 101.787 64.0045C101.787 60.277 101.628 56.442 101.335 52.635C100.347 39.8183 97.9753 27.5829 95.6018 22.2948C95.0085 20.9727 94.4576 20.0583 93.7033 19.6498C93.327 19.4455 92.8429 19.42 92.4574 19.6325C92.0735 19.845 91.7927 20.2159 91.5393 20.7159C90.524 22.7157 89.8593 27.1164 89.5513 34.9783C89.3904 39.1422 88.8228 42.7526 88.0064 45.9735C85.9759 42.8397 83.7678 39.6899 81.452 36.6438C73.6608 26.3929 65.0152 17.3817 60.1469 14.2099C58.9298 13.4169 57.9691 12.9439 57.1132 13.0061ZM57.1891 13.9512C57.5624 13.924 58.4806 14.2503 59.6324 14.9999C64.2352 17.9985 72.946 27.0267 80.6947 37.2206C83.1836 40.4963 85.5555 43.8926 87.6938 47.2591C87.2764 48.7178 86.8045 50.0876 86.2764 51.3621C86.0396 51.0447 85.7953 50.7262 85.5236 50.4112C81.9498 46.268 75.3848 42.2807 67.8182 38.7592C66.7301 35.2999 65.123 31.6065 62.7814 27.6489C58.7917 20.9069 57.0176 16.7769 56.8294 14.9712C56.7839 14.5198 56.8294 14.2351 56.9053 14.1125C56.966 13.99 56.9964 13.9648 57.1891 13.9512ZM93.0736 20.4169C93.1191 20.4184 93.1646 20.4413 93.2526 20.486C93.5819 20.6644 94.1738 21.4318 94.7338 22.6816C96.9783 27.6808 99.4094 39.9651 100.391 52.7106C100.707 56.807 100.85 60.938 100.819 64.9216C99.6765 65.9229 98.5353 66.8201 97.3986 67.607C97.3683 67.2124 97.3531 66.814 97.2772 66.4026C96.523 60.9939 93.1676 54.1035 88.7151 47.069C89.6772 43.5736 90.3313 39.6026 90.5089 35.0135C90.8154 27.1945 91.5681 22.7691 92.3907 21.1487C92.597 20.7436 92.8019 20.5305 92.9248 20.463C92.9855 20.4292 93.0159 20.415 93.0614 20.4168L93.0736 20.4169ZM25.9302 27.43C31.4314 27.4759 43.6615 30.3829 55.7171 34.7888C59.5929 36.2051 63.4309 37.7917 67.0594 39.4738C67.498 40.9209 67.85 42.3279 68.0959 43.6805C67.7241 43.5404 67.3447 43.4078 66.944 43.2886C61.6887 41.7263 54.0007 41.9034 45.7254 43.0121C42.93 40.6862 39.5716 38.4491 35.4484 36.3793C28.4297 32.8549 24.6949 30.3344 23.5567 28.9167C23.2714 28.5622 23.1622 28.2889 23.1515 28.1503C23.1515 28.0116 23.1515 27.9742 23.3079 27.8622C23.6083 27.6381 24.5553 27.4185 25.9302 27.43ZM68.2067 39.9982C75.3817 43.4158 81.5249 47.2368 84.7998 51.0336C85.1807 51.4754 85.5115 51.9151 85.8135 52.3532C84.1351 56.0493 82.0393 59.0006 79.722 61.2911C75.0964 65.8614 69.6681 67.9794 65.3294 68.9784C64.8984 68.7449 64.4203 68.4941 64.1183 68.3158C64.0728 68.2901 64.0728 68.2886 64.0273 68.2644C64.9909 67.0465 65.8195 65.9673 66.9744 64.5475C71.9672 58.4054 74.0235 53.7768 73.7777 50.2446C73.6563 48.4786 72.9309 47.0021 71.7396 45.8535C71.0218 45.161 70.1218 44.5963 69.1051 44.119C68.8865 42.7846 68.6027 41.4198 68.2021 39.9987L68.2067 39.9982ZM56.1647 43.1158C60.2546 43.0442 63.871 43.3663 66.6724 44.1991C67.2354 44.3664 67.7544 44.5562 68.2476 44.7639C68.844 48.7768 68.6817 52.3884 67.9745 55.5631C66.5677 61.8945 63.1562 66.5979 60.0482 69.7737C59.5565 69.8099 59.0117 69.8538 58.6596 69.8659C58.6141 69.8674 58.6141 69.8659 58.5686 69.8659C58.7203 68.3229 58.8311 66.9682 59.033 65.152C59.8965 57.2984 59.1088 52.2994 56.9827 49.4604C55.9204 48.0408 54.5091 47.1871 52.8838 46.8615C51.9049 46.6652 50.8426 46.6756 49.7287 46.8211C48.8212 45.8179 47.8409 44.8208 46.7361 43.8418C50.0353 43.4297 53.2298 43.1616 56.1723 43.11L56.1647 43.1158ZM45.4704 44.0205C46.6283 45.0041 47.6876 45.9978 48.6315 47.0055C48.2415 47.0882 47.8485 47.1779 47.4448 47.2937C42.1743 48.8075 35.8066 53.0977 29.4449 58.4847C25.8301 58.0323 21.7857 57.9501 17.1936 58.4273C9.37353 59.2395 4.86484 59.128 3.13632 58.5481C2.70382 58.4031 2.46859 58.2325 2.38361 58.1217C2.29255 58.0115 2.29256 57.9736 2.35326 57.7989C2.47466 57.4492 3.16516 56.7544 4.32762 56.0241C8.97897 53.1028 20.8433 48.9625 33.38 46.1815C37.4091 45.2877 41.5035 44.5581 45.4674 44.0205H45.4704ZM119.775 45.1961C119.912 45.2052 119.951 45.2227 120.041 45.3863C120.221 45.7135 120.306 46.6781 120.086 48.0313C119.258 53.4439 114.629 65.0811 108.532 76.3315C106.571 79.9485 104.445 83.5065 102.255 86.8425C100.752 87.069 99.3047 87.2131 97.9237 87.2632C98.118 86.9159 98.3046 86.5639 98.4791 86.1855C100.781 81.2297 101.699 73.626 101.774 65.3134C104.483 62.8912 107.19 59.8982 109.834 56.1336C114.338 49.7199 117.374 46.3991 118.947 45.4785C119.34 45.2483 119.623 45.1872 119.763 45.1961H119.775ZM69.272 45.2481C69.9701 45.6255 70.5801 46.0522 71.0779 46.5332C72.119 47.5372 72.7245 48.757 72.8322 50.3077C73.0477 53.409 71.1614 57.8956 66.2384 63.9536C65.0532 65.41 64.1942 66.5218 63.2093 67.7684C63.2093 67.7684 63.1941 67.7533 63.1941 67.7518C63.179 67.7367 63.1638 67.7306 63.1183 67.717C65.5388 64.6582 67.8182 60.7007 68.9154 55.7654C69.6074 52.6458 69.7834 49.125 69.2796 45.2485L69.272 45.2481ZM51.5726 47.6683C51.9596 47.6857 52.3299 47.7297 52.685 47.8008C54.1054 48.0855 55.277 48.7845 56.2103 50.0309C58.0769 52.5238 58.9252 57.3082 58.0754 65.0541C57.8705 66.9192 57.7521 68.3199 57.5989 69.9004H57.5837C57.5533 69.9019 57.5382 69.9019 57.4926 69.9004C57.8675 66.0242 57.6292 61.47 55.8764 56.7271C54.7656 53.7288 52.9945 50.6754 50.4632 47.6856C50.8457 47.6572 51.2175 47.6465 51.5741 47.6625L51.5726 47.6683ZM49.3448 47.8355C52.0233 50.8891 53.8474 54.012 54.9765 57.0613C57.2316 63.1474 56.9205 68.9447 56.0297 73.2889C55.6351 73.584 55.2041 73.9125 54.9143 74.113C54.8687 74.1402 54.8687 74.1386 54.8232 74.1643C54.11 72.7872 53.4711 71.586 52.6531 69.952C49.1126 62.8802 45.7345 59.1008 42.4049 57.8561C40.7402 57.2338 39.086 57.2785 37.5411 57.8788C36.6109 58.241 35.7261 58.8158 34.8657 59.5384C33.556 59.1825 32.1902 58.8737 30.7273 58.6452C36.8294 53.5698 42.8724 49.5906 47.7028 48.2033C48.2673 48.041 48.8061 47.925 49.3357 47.8345L49.3448 47.8355ZM88.3721 48.3196C92.553 55.057 95.6458 61.5778 96.3378 66.5352C96.4289 67.1137 96.4592 67.6626 96.4744 68.1948C93.0553 70.4008 89.6924 71.7567 86.4994 72.4361C80.1257 73.792 74.4075 72.6519 70.2129 71.1568C69.9777 70.7288 69.7106 70.259 69.5527 69.9466C69.5224 69.8998 69.5224 69.8983 69.5072 69.8545C70.9808 69.3478 72.2692 68.8897 74.0114 68.3159C81.5476 65.8353 85.7892 63.0466 87.501 59.9427C88.3585 58.3909 88.5451 56.7552 88.1672 55.1484C87.9411 54.18 87.495 53.2267 86.9001 52.2786C87.4403 51.037 87.9396 49.7317 88.3767 48.3196H88.3721ZM86.4145 53.3099C86.7984 54.0046 87.0792 54.6929 87.237 55.3672C87.5663 56.7718 87.41 58.1249 86.6588 59.4875C85.1549 62.2127 81.1394 64.9703 73.7063 67.4169C71.9186 68.0053 70.5923 68.4824 69.0869 69.0016C69.0869 69.0016 69.0717 68.9728 69.0717 68.9668C69.0717 68.9456 69.0413 68.9245 69.0261 68.8973C72.7245 67.6267 76.787 65.5262 80.3912 61.965C82.6691 59.7137 84.7315 56.8428 86.4129 53.3095L86.4145 53.3099ZM39.948 58.3522C40.64 58.3522 41.3472 58.4715 42.0772 58.7441C45.0015 59.837 48.3189 63.4042 51.8108 70.3788C52.6501 72.0562 53.3087 73.2969 54.0386 74.7066C54.0386 74.7066 54.0083 74.7217 54.0083 74.7232C53.9931 74.7383 53.9779 74.7535 53.9628 74.7746C52.1751 71.3107 49.5041 67.6086 45.4462 64.5631C42.8845 62.6397 39.7386 61.0195 35.9856 59.8666C36.623 59.39 37.2619 59.0123 37.9084 58.7602C38.5822 58.4977 39.2651 58.3583 39.9571 58.351L39.948 58.3522ZM29.7803 59.4643C31.2857 59.6684 32.7138 59.9379 34.0538 60.277C33.7715 60.5546 33.4938 60.841 33.2206 61.1529C29.6073 65.2637 26.5721 72.3039 24.1471 80.2617C20.8631 81.826 17.4197 83.932 13.8185 86.8022C7.68145 91.6932 3.82226 94.024 2.0543 94.4666C1.61268 94.5768 1.32283 94.5602 1.1908 94.5134C1.05422 94.4651 1.02842 94.4424 0.988963 94.2598C0.897909 93.8953 1.11037 92.9414 1.68856 91.7012C4.01651 86.7401 11.7485 76.8713 20.7826 67.7864C23.6888 64.8651 26.7345 62.0516 29.7803 59.4643ZM35.1009 60.5939C39.0193 61.7205 42.2532 63.3605 44.8634 65.3193C50.0672 69.2274 52.9445 74.2774 54.5546 78.412C54.3831 78.8683 54.2025 79.3748 54.0675 79.697C54.0523 79.7438 54.0523 79.7453 54.0371 79.7891C52.688 79.0136 51.4982 78.3448 49.9199 77.4092C43.1015 73.3648 38.2058 72.0023 34.7291 72.7472C32.9884 73.1197 31.6257 74.0444 30.6529 75.3807C30.0656 76.1863 29.6331 77.1521 29.3038 78.2216C28.0093 78.6266 26.692 79.1023 25.3384 79.697C27.7149 72.1413 30.6362 65.542 33.946 61.7751C34.3315 61.3376 34.7185 60.9522 35.11 60.5939H35.1009ZM100.815 66.1836C100.663 74.0972 99.7327 81.247 97.6232 85.7881C97.3774 86.3191 97.1133 86.8013 96.8356 87.2575C92.7625 87.2741 89.1992 86.6009 86.1428 85.4538C80.0452 83.1647 75.8507 79.1257 73.1342 75.6113C73.1646 75.1245 73.1949 74.5872 73.2404 74.2397C73.2404 74.1899 73.2404 74.1884 73.2404 74.1416C74.7535 74.5074 76.0829 74.8101 77.8599 75.2654C85.5479 77.234 90.6333 77.1743 93.758 75.4843C95.3211 74.6392 96.3697 73.3685 96.9251 71.8134C97.2605 70.876 97.3971 69.8263 97.4108 68.7075C98.5414 67.9552 99.6719 67.1355 100.806 66.1834L100.815 66.1836ZM62.5279 68.4484C62.5279 68.4484 62.5431 68.4816 62.5431 68.4891C62.5431 68.5043 62.5734 68.5224 62.5886 68.536C62.3276 68.8687 62.0013 69.2733 61.754 69.5907C61.6629 69.6058 61.5597 69.6208 61.4702 69.6314C61.8177 69.253 62.1637 68.8656 62.5127 68.4499L62.5279 68.4484ZM63.308 69.1745C63.3535 69.2213 63.4445 69.2938 63.5007 69.3473C63.3641 69.3699 63.2639 69.3775 63.1334 69.3986C63.1941 69.3291 63.2548 69.2446 63.308 69.1745ZM68.1429 69.1972C68.1429 69.2123 68.1429 69.2395 68.1429 69.2485C68.1429 69.2697 68.1429 69.2983 68.1581 69.318C67.7559 69.4584 67.2597 69.6159 66.8788 69.7502C66.7877 69.7109 66.6982 69.6686 66.6178 69.6293C67.1186 69.4979 67.6209 69.36 68.1399 69.1972H68.1429ZM96.4608 69.318C96.4001 70.1096 96.265 70.8372 96.0313 71.4905C95.5457 72.8496 94.6822 73.9065 93.3103 74.6483C90.5665 76.1322 85.6891 76.2902 78.1073 74.3486C76.2832 73.8817 74.9082 73.5641 73.3588 73.1904C73.3588 73.1904 73.3588 73.1678 73.3588 73.1617C73.3588 73.1376 73.3588 73.1133 73.3588 73.0816C77.1603 74.0032 81.7191 74.4207 86.6861 73.3641C89.826 72.696 93.1191 71.3875 96.4532 69.3186L96.4608 69.318ZM64.3976 70.1477C64.4886 70.2353 64.6647 70.4045 64.7663 70.4993C64.2837 70.6741 63.9453 70.8078 63.5007 70.9718C62.921 70.857 62.5765 70.7975 62.0924 70.7067C62.1379 70.6388 62.229 70.545 62.2775 70.4763C62.8648 70.3977 63.399 70.3463 64.0607 70.2227C64.1669 70.2031 64.2883 70.1703 64.3976 70.1477ZM68.4024 70.2277C68.4176 70.2972 68.448 70.3974 68.4783 70.4756C68.3569 70.4228 68.2628 70.3714 68.1444 70.32C68.2355 70.2913 68.3266 70.2566 68.41 70.2279L68.4024 70.2277ZM66.8226 70.7694C67.3614 71.0202 67.8394 71.265 68.4677 71.5186C68.5587 71.5594 68.6862 71.5987 68.7924 71.6395C68.8228 71.7633 68.8835 71.9953 68.9139 72.1293C68.4131 72.016 68.0579 71.9485 67.5936 71.847C67.1686 71.4387 66.9107 71.205 66.551 70.8673C66.6421 70.8386 66.7452 70.7978 66.8242 70.7691L66.8226 70.7694ZM57.397 70.8389C57.397 70.8389 57.4274 70.854 57.4425 70.8555C57.4577 70.8555 57.4881 70.8555 57.5032 70.8706C57.4729 71.2915 57.4122 71.8073 57.3667 72.2077C57.2908 72.2651 57.2149 72.3421 57.1512 72.3978C57.2422 71.892 57.3211 71.3793 57.3879 70.8419L57.397 70.8389ZM58.4517 71.0233C58.5276 71.0384 58.6217 71.052 58.6991 71.0641C58.608 71.1547 58.52 71.219 58.4214 71.3063C58.4214 71.2187 58.4366 71.112 58.4517 71.0233ZM65.5373 71.2194C65.6283 71.2949 65.7027 71.3765 65.7861 71.4556C65.6131 71.4194 65.3976 71.3695 65.2292 71.3348C65.3506 71.2925 65.4174 71.2617 65.5373 71.2194ZM59.8934 71.2602C60.0148 71.2813 60.2576 71.3281 60.3957 71.3523C60.0846 71.761 59.8722 72.0566 59.5854 72.4356C59.036 72.65 58.7173 72.7873 58.2605 72.9715C58.2605 72.8839 58.2757 72.76 58.2757 72.6718C58.7249 72.2913 59.1468 71.9618 59.6369 71.5022C59.728 71.4282 59.7993 71.3369 59.8798 71.26L59.8934 71.2602ZM61.4383 71.5482C61.5445 71.5678 61.6614 71.5905 61.7737 71.6116C61.6083 71.6751 61.4004 71.7522 61.241 71.8133C61.3321 71.7121 61.3624 71.6506 61.4383 71.5482ZM63.5811 71.9516C64.5417 72.1441 65.9015 72.4515 67.1246 72.7181C67.8273 73.3965 68.8061 74.3838 69.6893 75.265C69.9124 76.2119 70.1947 77.5675 70.4587 78.7802C70.1309 79.6993 69.6301 80.9965 69.19 82.1629C68.4161 82.7596 67.2931 83.5846 66.29 84.3297C66.29 84.3306 66.29 84.3288 66.29 84.3297C65.3157 84.4143 63.9271 84.5023 62.6827 84.589C62.6827 84.5899 62.6827 84.5881 62.6827 84.589C61.8177 84.1355 60.6006 83.4576 59.5049 82.8602C59.0223 82.0105 58.3622 80.7865 57.7628 79.6908C57.8083 78.7174 57.9312 77.3362 58.0238 76.0949C58.5989 75.3052 59.4427 74.2036 60.1954 73.2079C61.1075 72.8533 62.4156 72.379 63.5872 71.9459L63.5811 71.9516ZM70.9383 72.4011C71.43 72.5589 71.9247 72.7139 72.4513 72.8563C72.4513 72.8714 72.4361 72.888 72.421 72.8971C72.421 72.9152 72.4058 72.9424 72.4058 72.9605C71.993 72.8623 71.4876 72.7353 71.0961 72.6436C71.0506 72.5651 70.9899 72.4776 70.9413 72.4016L70.9383 72.4011ZM68.8501 73.0868C68.9715 73.114 69.0444 73.1276 69.1673 73.1563C69.1976 73.2635 69.228 73.3775 69.2583 73.4905C69.1369 73.3651 68.9776 73.2075 68.8531 73.0872L68.8501 73.0868ZM70.2099 73.4038C70.3009 73.4235 70.4147 73.4537 70.4997 73.4733C70.8138 73.971 71.084 74.4351 71.4725 74.9831C71.5332 75.0707 71.6091 75.165 71.6743 75.2539C71.644 75.3762 71.5529 75.6049 71.5119 75.738C71.1492 75.3714 70.8882 75.1178 70.5513 74.7814C70.4147 74.2136 70.3282 73.8781 70.2099 73.4038ZM36.1435 73.5186C39.1862 73.3676 43.5401 74.7363 49.4237 78.2267C51.043 79.1863 52.2707 79.877 53.6501 80.67C53.6501 80.67 53.6501 80.6942 53.6501 80.6987C53.6501 80.7214 53.635 80.7425 53.6198 80.7742C50.2326 78.8239 45.9773 77.1424 40.9117 76.7634C37.7111 76.5239 34.1843 76.8541 30.3979 77.9045C30.6741 77.161 31.008 76.5002 31.4177 75.9395C32.2676 74.7714 33.3982 74.0019 34.9264 73.6747C35.3073 73.5931 35.7125 73.5402 36.148 73.5191L36.1435 73.5186ZM71.8428 73.8009C71.9338 73.8205 72.0325 73.8433 72.1205 73.8644C72.1053 73.9324 72.0749 74.0295 72.0294 74.1065C71.9535 73.9978 71.908 73.9082 71.8321 73.8011L71.8428 73.8009ZM58.4806 73.9052C58.3743 74.0472 58.2393 74.218 58.1376 74.3547C58.1376 74.2308 58.1376 74.158 58.1679 74.032C58.259 73.9897 58.3789 73.949 58.4866 73.9052H58.4806ZM57.183 74.4296C57.1375 74.9395 57.1223 75.3013 57.092 75.7723C56.749 76.2464 56.5532 76.5364 56.271 76.9364C56.2255 76.8593 56.1799 76.7491 56.1344 76.6713C56.3059 76.1084 56.4819 75.6052 56.6443 74.954C56.6747 74.8483 56.6898 74.7276 56.7202 74.6198C56.8416 74.5699 57.0647 74.4838 57.1937 74.4296H57.183ZM55.5972 75.098C55.5668 75.2279 55.5213 75.3242 55.4909 75.4497C55.4606 75.3726 55.3999 75.2793 55.3695 75.2018C55.4302 75.1731 55.5274 75.1307 55.6002 75.0975L55.5972 75.098ZM54.4848 75.5763C54.6806 75.9512 54.9173 76.4135 55.104 76.7692C55.0736 76.8568 55.0584 76.9613 55.0129 77.0459C54.8111 76.5734 54.5986 76.0993 54.3649 75.6109L54.4104 75.5959C54.4256 75.5959 54.456 75.5793 54.4711 75.5732L54.4848 75.5763ZM70.9383 76.5098C71.0293 76.5974 71.0749 76.6457 71.1644 76.7346C71.1341 76.8373 71.1037 76.9493 71.0582 77.0574C71.0278 76.8864 70.9686 76.6743 70.9383 76.5098ZM73.069 77.0459C73.3998 77.4447 73.7337 77.8457 74.0994 78.2502C74.0994 78.2502 74.069 78.2684 74.0539 78.2729C74.0387 78.288 74.0235 78.3015 73.9932 78.3136C73.6987 78.0084 73.3421 77.6289 73.0598 77.3398C73.0598 77.2462 73.0598 77.1365 73.0598 77.0459H73.069ZM71.9126 77.5069C71.9733 77.5689 72.0643 77.6564 72.1205 77.72C72.1205 78.3074 72.0901 78.8375 72.1205 79.5065C72.1205 79.6153 72.1356 79.7366 72.1356 79.8465C72.0446 79.9266 71.8488 80.0764 71.7411 80.1634C71.6349 79.6608 71.5529 79.3069 71.4527 78.8438C71.647 78.2958 71.7517 77.9678 71.9095 77.5069H71.9126ZM56.9524 77.6051C56.9524 77.7796 56.922 77.996 56.922 78.164C56.8613 78.0537 56.8158 77.9938 56.7612 77.8816C56.8219 77.7925 56.8977 77.6983 56.9584 77.6051H56.9524ZM38.0435 77.6398C38.998 77.6156 39.9283 77.6398 40.8327 77.7093C47.3325 78.1957 52.4998 80.8957 56.101 83.5066C56.2072 83.9821 56.3271 84.5062 56.3893 84.8492C56.3893 84.8991 56.3894 84.9005 56.4045 84.9473C54.849 85.0213 53.4862 85.1047 51.6515 85.1663C43.7176 85.4332 38.8584 86.9209 36.3362 89.4191C35.0766 90.6681 34.4271 92.1799 34.3345 93.8275C34.289 94.82 34.4256 95.8628 34.7397 96.9394C33.8717 97.976 33.0249 99.0874 32.2099 100.316C30.1066 92.6808 28.976 85.558 29.7135 80.6081C29.8046 80.0307 29.9199 79.4976 30.055 78.9829C32.8776 78.1455 35.5531 77.7022 38.0404 77.6403L38.0435 77.6398ZM73.069 78.7174C73.1297 78.7809 73.2055 78.8549 73.2662 78.9191C73.2207 78.9644 73.1297 79.0293 73.069 79.0805C73.069 78.9476 73.069 78.8464 73.069 78.7174ZM56.1465 78.7461C56.3893 79.1973 56.5684 79.5122 56.7945 79.9275C56.7642 80.5104 56.749 80.8567 56.7338 81.345C56.658 81.3027 56.5548 81.2439 56.4804 81.2016C56.318 80.635 56.1936 80.1142 55.9751 79.4786C55.9447 79.3744 55.884 79.2611 55.8536 79.1557C55.9295 79.05 56.0707 78.8603 56.1496 78.7468L56.1465 78.7461ZM74.7428 78.9305C77.4411 81.751 81.0499 84.5576 85.8014 86.3413C88.8061 87.4693 92.2875 88.1376 96.2164 88.1909C95.7414 88.8288 95.2285 89.3684 94.6761 89.793C93.5303 90.6752 92.2283 91.0945 90.6697 90.9801C87.5542 90.7516 83.3672 88.2627 78.042 82.5495C76.7612 81.1747 75.7733 80.1709 74.673 79.0227C74.673 79.0227 74.6882 79.0001 74.6882 78.994C74.7186 78.9744 74.7186 78.9577 74.7337 78.9305H74.7428ZM29.0048 79.282C28.9138 79.6686 28.8348 80.0576 28.7741 80.4691C27.9668 85.8698 29.2416 93.4249 31.524 101.422C29.6088 104.506 27.859 108.132 26.3885 112.486C23.8815 119.903 21.9041 123.944 20.6567 125.268C20.3425 125.599 20.0921 125.739 19.9555 125.769C19.819 125.799 19.7765 125.792 19.6429 125.66C19.3774 125.397 19.0283 124.493 18.8432 123.136C18.1056 117.711 19.2514 105.249 21.9178 92.7441C22.7752 88.7234 23.8132 84.7118 24.9696 80.8963C26.346 80.2587 27.6952 79.7169 29.0048 79.282ZM74.066 79.7604C75.1404 80.8827 76.0935 81.8548 77.3424 83.1948C82.7404 88.9876 87.0534 91.6705 90.6014 91.9309C92.374 92.0608 93.9446 91.5515 95.2543 90.5422C96.0465 89.9338 96.7385 89.1302 97.3576 88.1967C98.7128 88.1711 100.117 88.088 101.584 87.8972C97.1634 94.479 92.4923 99.9868 88.2507 102.672C87.756 102.985 87.2704 103.251 86.7908 103.485C83.3535 101.306 80.7205 98.8225 78.7735 96.2125C74.8855 91.0059 73.544 85.3536 73.1676 80.9359C73.4635 80.5436 73.7807 80.1079 74.0023 79.8353C74.0326 79.796 74.0326 79.796 74.063 79.7598L74.066 79.7604ZM55.1798 80.1579C55.2254 80.2848 55.2406 80.385 55.2861 80.5095C55.195 80.4657 55.1146 80.4097 55.0372 80.3659C55.0675 80.307 55.1282 80.2255 55.1738 80.1586L55.1798 80.1579ZM128.088 80.244C128.545 80.2622 128.821 80.3634 128.934 80.4457C129.055 80.5287 129.07 80.565 129.055 80.7511C129.04 81.1233 128.57 81.9775 127.662 83.0043C124.023 87.1119 113.808 94.4142 102.567 100.598C98.9557 102.585 95.2376 104.433 91.5848 106.061C90.1932 105.441 88.8972 104.781 87.7059 104.078C88.0565 103.89 88.4055 103.697 88.7606 103.473C93.3877 100.543 98.291 94.6413 102.868 87.6893C106.465 87.1098 110.363 86.0517 114.634 84.3066C121.906 81.3347 126.266 80.1726 128.088 80.244ZM70.8412 80.4977C70.8715 80.6215 70.8867 80.694 70.917 80.8203C70.826 80.8882 70.741 80.9623 70.6515 81.0336C70.7122 80.8662 70.788 80.6588 70.8487 80.4977H70.8412ZM54.4969 81.1603C54.8672 81.3717 55.3195 81.6352 55.6715 81.8346C55.6867 81.9206 55.7322 82.0208 55.7626 82.1054C55.3362 81.8156 54.8961 81.5316 54.4317 81.2467C54.4317 81.2316 54.462 81.2195 54.4772 81.212C54.4772 81.1969 54.4924 81.1742 54.5076 81.1606L54.4969 81.1603ZM57.6808 81.5406C57.7719 81.6917 57.8659 81.8796 57.9479 82.0247C57.8417 81.9643 57.7734 81.9356 57.6626 81.8752C57.6626 81.768 57.6626 81.6533 57.6778 81.5409L57.6808 81.5406ZM71.125 81.8692C71.1401 81.9523 71.1553 82.0728 71.1705 82.1572C70.8442 82.6498 70.5316 83.0867 70.1916 83.6671C70.1309 83.7607 70.0854 83.87 70.0232 83.9668C69.9018 83.9819 69.6575 84.003 69.5194 84.0181C69.703 83.5404 69.8214 83.1981 69.9883 82.7561C70.4572 82.3942 70.7304 82.1752 71.1174 81.8686L71.125 81.8692ZM72.3345 82.1111C72.3952 82.6215 72.4559 83.1376 72.5484 83.6729C72.5484 83.6738 72.5181 83.6729 72.5029 83.6729C72.4877 83.6738 72.4574 83.6729 72.4422 83.6729C72.3511 83.2579 72.2662 82.7472 72.1872 82.3531C72.2328 82.2776 72.2783 82.1838 72.339 82.1111H72.3345ZM57.6231 82.9352C58.0708 83.184 58.3941 83.3534 58.8099 83.5806C59.1012 84.0887 59.2803 84.3853 59.5277 84.8079C59.4366 84.8079 59.3198 84.808 59.2318 84.8231C58.7886 84.4334 58.4001 84.0651 57.872 83.6476C57.781 83.5796 57.6869 83.5087 57.5989 83.4401C57.5989 83.3132 57.614 83.0762 57.6292 82.9387L57.6231 82.9352ZM71.4376 83.5115C71.4527 83.5976 71.4679 83.7016 71.4831 83.7881C71.4072 83.8032 71.3071 83.8062 71.2281 83.8168C71.304 83.702 71.3647 83.6221 71.43 83.5113L71.4376 83.5115ZM68.583 83.8227C68.5375 83.9375 68.5071 84.0053 68.4616 84.1224C68.3554 84.1375 68.237 84.145 68.1247 84.1571C68.2613 84.0513 68.4419 83.925 68.577 83.8229L68.583 83.8227ZM60.4306 84.4565C60.5824 84.5381 60.7706 84.6433 60.9163 84.7216C60.7949 84.7216 60.7235 84.7367 60.5991 84.7442C60.5536 84.6521 60.4929 84.5533 60.4306 84.4565ZM72.7229 84.5954C73.4605 88.4194 74.9735 92.7205 78.0026 96.7776C79.9162 99.3427 82.4809 101.782 85.7543 103.941C85.0107 104.219 84.2823 104.399 83.5903 104.459C82.1455 104.585 80.8253 104.235 79.5778 103.301C77.0814 101.432 74.9082 97.0841 73.5333 89.413C73.2025 87.5685 72.9187 86.1929 72.6167 84.6359L72.6471 84.6208C72.6774 84.6057 72.6926 84.6057 72.7229 84.5921V84.5954ZM57.5761 84.6423C57.6823 84.7269 57.7536 84.8007 57.8538 84.8844C57.7627 84.8844 57.6596 84.8844 57.57 84.8995C57.57 84.8285 57.57 84.7261 57.57 84.6459L57.5761 84.6423ZM71.7092 84.9305C72.0036 86.4517 72.2722 87.7836 72.5955 89.5809C73.9901 97.3585 76.1618 101.934 79.0042 104.062C80.4246 105.126 82.0241 105.548 83.6752 105.405C84.6723 105.319 85.6891 105.016 86.7165 104.564C87.8698 105.271 89.0899 105.952 90.4269 106.581C83.1365 109.738 76.2149 111.859 71.1887 111.836C70.5999 111.836 70.049 111.788 69.5148 111.727C67.8091 108.046 66.9456 104.539 66.724 101.297C66.2824 94.8228 68.2294 89.3516 70.3146 85.4325C70.7729 85.2617 71.2782 85.0703 71.6106 84.9601C71.6561 84.9434 71.6561 84.945 71.7016 84.9314L71.7092 84.9305ZM68.0792 85.1148C68.064 85.1949 67.9881 85.3099 67.973 85.3914C67.4327 85.6308 66.9349 85.8303 66.334 86.1348C66.2429 86.1846 66.1306 86.245 66.032 86.2962C65.9106 86.2403 65.7057 86.127 65.5813 86.0657C65.9956 85.762 66.2824 85.5357 66.6648 85.2531C67.2476 85.2018 67.5936 85.164 68.0822 85.1141L68.0792 85.1148ZM64.8832 85.3914C64.7921 85.4654 64.7254 85.5123 64.6237 85.5873C64.5326 85.539 64.4234 85.4832 64.3217 85.4318C64.4977 85.4167 64.7132 85.405 64.8832 85.3914ZM62.4809 85.5643C63.0014 85.8362 63.3155 85.9869 63.7541 86.2097C63.6782 86.2596 63.5857 86.3275 63.5174 86.3769C62.9331 86.2878 62.405 86.1905 61.7342 86.1232C61.628 86.1081 61.502 86.1082 61.3928 86.1007C61.3321 85.9919 61.2092 85.7817 61.1378 85.6626C61.6477 85.6308 62.0089 85.5975 62.4809 85.5643ZM58.8964 85.7832C58.9723 85.8452 59.0512 85.9132 59.1164 85.9734C58.5989 85.9583 58.0754 85.9523 57.5306 85.9583C57.5306 85.9432 57.5306 85.916 57.5306 85.907C57.5306 85.8888 57.5306 85.8617 57.5306 85.8435C57.957 85.8224 58.4806 85.8028 58.8858 85.7801L58.8964 85.7832ZM56.5684 85.8875C56.5684 85.8875 56.5684 85.9162 56.5684 85.9223C56.5684 85.9464 56.5684 85.9721 56.5836 86.0023C52.6759 86.1842 48.1808 87.0589 43.7131 89.4657C40.8919 90.986 38.1042 93.159 35.4924 96.0754C35.3225 95.3049 35.2451 94.5682 35.283 93.8798C35.3741 92.4397 35.8976 91.1847 37.0039 90.088C39.2165 87.8946 43.8497 86.3749 51.6743 86.1118C53.5576 86.0484 54.9674 85.9623 56.5608 85.8871L56.5684 85.8875ZM68.9761 85.9736C68.7484 86.4372 68.5223 86.9086 68.3038 87.4086C68.3038 87.4086 68.2886 87.3799 68.2734 87.3738C68.2583 87.3587 68.2279 87.3541 68.2127 87.3451C68.3706 86.9511 68.5694 86.4696 68.7181 86.0946C68.8091 86.0583 68.9002 86.0085 68.9837 85.9737L68.9761 85.9736ZM67.4479 86.6709C67.4175 86.7494 67.372 86.8447 67.3417 86.9245C67.2809 86.8958 67.1869 86.855 67.1155 86.8202C67.2369 86.7613 67.3295 86.7266 67.4464 86.6707L67.4479 86.6709ZM57.872 86.8956C58.6718 86.8805 59.4321 86.9168 60.1651 86.9591C60.5126 87.3048 60.898 87.6825 61.1378 87.9387C61.1682 87.9765 61.1682 87.978 61.2137 88.0143C59.9465 88.9127 58.8448 89.7128 57.3348 90.7516C50.8077 95.245 47.5207 99.1126 46.7573 102.571C46.3764 104.3 46.6663 105.918 47.4751 107.353C47.9684 108.219 48.668 109.014 49.5087 109.757C49.3402 111.095 49.2264 112.486 49.2067 113.958C43.2897 108.667 38.479 103.282 36.4121 98.7212C36.1708 98.1889 35.9735 97.6774 35.8096 97.1711C38.4653 94.0938 41.3138 91.85 44.1866 90.3021C48.973 87.7226 53.8201 86.935 57.8796 86.8964L57.872 86.8956ZM62.0226 87.1261C62.1591 87.1412 62.2578 87.1624 62.3883 87.1775C62.3124 87.2288 62.2274 87.2877 62.1561 87.3389C62.1258 87.28 62.0651 87.1924 62.0195 87.1257L62.0226 87.1261ZM63.7663 87.3739C63.8573 87.389 63.9575 87.3997 64.044 87.4148C63.6008 87.6811 63.1592 87.9539 62.707 88.2561C62.707 88.241 62.707 88.2183 62.6918 88.2093C62.6918 88.1912 62.6615 88.1685 62.6615 88.1519C63.0075 87.904 63.443 87.6108 63.7723 87.3739H63.7663ZM65.4675 87.6794C65.9455 87.7821 66.4782 87.8928 66.8166 87.9791C66.8621 87.9942 66.8621 87.9942 66.9076 88.0018C66.3294 89.4411 65.8377 90.7112 65.1321 92.3986C62.0787 99.692 61.4216 104.707 62.6584 108.027C63.2761 109.687 64.3869 110.901 65.8544 111.669C66.7392 112.132 67.762 112.424 68.8698 112.597C69.4587 113.814 70.1188 115.046 70.9034 116.296C63.053 115.029 56.0767 113.085 51.8594 110.361C51.3677 110.042 50.9261 109.713 50.5118 109.375C51.0748 105.36 52.254 101.942 53.8292 99.0947C56.9751 93.4106 61.584 89.8543 65.4659 87.6789L65.4675 87.6794ZM67.8349 88.2499C67.8349 88.2514 67.8652 88.2499 67.8652 88.2499C67.8956 88.2499 67.9107 88.265 67.9563 88.2665C66.4994 91.8799 65.4356 96.3171 65.7786 101.359C65.9971 104.548 66.8242 107.974 68.4085 111.553C67.63 111.387 66.9228 111.144 66.3051 110.821C65.0243 110.15 64.0986 109.15 63.5568 107.692C62.4702 104.777 63.006 99.9488 66.0168 92.7555C66.7392 91.0263 67.2491 89.7155 67.8409 88.2434L67.8349 88.2499ZM61.8541 88.7166C61.8541 88.7166 61.8693 88.7363 61.8845 88.7393C61.8996 88.7559 61.9148 88.7755 61.93 88.7966C58.7416 91.0527 55.4363 94.2122 52.9854 98.6393C51.4345 101.439 50.2751 104.768 49.662 108.632C49.0974 108.072 48.6331 107.489 48.2901 106.886C47.5753 105.63 47.3416 104.289 47.6755 102.771C48.3462 99.7347 51.4208 95.96 57.8599 91.5282C59.4093 90.4623 60.552 89.6364 61.848 88.7161L61.8541 88.7166ZM35.0796 97.9945C35.2162 98.365 35.3589 98.7344 35.5288 99.1123C37.784 104.089 42.9589 109.759 49.2219 115.259C49.2826 118.884 49.7849 122.877 50.9124 127.332C52.8322 134.92 53.3679 139.383 53.037 141.168C52.946 141.614 52.817 141.87 52.7199 141.969C52.6288 142.069 52.5833 142.084 52.3997 142.044C52.0339 141.966 51.2433 141.392 50.3509 140.35C46.7831 136.183 40.9815 125.082 36.4333 113.128C34.9719 109.286 33.6577 105.358 32.5605 101.527C33.3724 100.248 34.2101 99.0666 35.0796 97.9945ZM91.6258 107.099C94.9644 108.547 98.8206 109.75 103.361 110.58C111.093 111.993 115.391 113.366 116.887 114.406C117.261 114.667 117.438 114.899 117.488 115.029C117.534 115.159 117.534 115.202 117.428 115.351C117.201 115.651 116.352 116.124 115.03 116.498C109.74 117.997 97.1816 118.642 84.3673 117.795C80.2486 117.523 76.1147 117.077 72.1569 116.481C71.3253 115.213 70.5938 113.961 69.9746 112.73C70.3707 112.76 70.7668 112.785 71.1841 112.787C76.6686 112.813 84 110.484 91.6273 107.099L91.6258 107.099ZM50.3509 110.459C50.6681 110.697 50.9914 110.93 51.3404 111.156C55.9432 114.13 63.3762 116.123 71.6349 117.38C73.6578 120.393 76.2452 123.484 79.6127 126.623C85.3491 131.973 88.2189 135.437 88.9109 137.117C89.0824 137.537 89.1066 137.828 89.0793 137.964C89.049 138.1 89.0338 138.135 88.8456 138.2C88.4951 138.332 87.5299 138.274 86.2126 137.877C80.9467 136.291 70.0277 130.071 59.7068 122.463C56.3893 120.017 53.1539 117.418 50.1491 114.787C50.1491 113.272 50.1946 111.829 50.3509 110.459Z" fill="#3F51B5"/>
</svg>
