<svg xmlns:dc="http://purl.org/dc/elements/1.1/" xmlns:cc="http://creativecommons.org/ns#" xmlns:rdf="http://www.w3.org/1999/02/22-rdf-syntax-ns#" xmlns:svg="http://www.w3.org/2000/svg" xmlns="http://www.w3.org/2000/svg" xmlns:sodipodi="http://sodipodi.sourceforge.net/DTD/sodipodi-0.dtd" xmlns:inkscape="http://www.inkscape.org/namespaces/inkscape" version="1.1" x="0px" y="0px" viewBox="0 0 100 100"><g transform="translate(0,-952.36218)"><path d="m 45.517311,959.33361 c -0.282,0.0206 -0.557,0.1797 -0.694,0.43493 -0.137,0.25523 -0.161,0.56204 -0.123,0.9309 0.154,1.47536 1.362,4.16085 4.006,8.6488 1.401,2.37733 2.379,4.5876 3.079,6.67259 -2.247,-1.02198 -4.6,-1.98585 -6.974,-2.8575 -7.989,-2.9332 -16.009,-4.87409 -19.843,-4.90622 -0.958,-0.008 -1.657,0.0685 -2.109,0.40822 -0.226,0.16987 -0.374,0.45518 -0.351,0.74395 0.02,0.28876 0.169,0.56115 0.4,0.85076 0.927,1.15837 3.392,2.76231 8.043,5.10841 2.462,1.24241 4.483,2.57358 6.2,3.94861 -2.444,0.35524 -4.941,0.81565 -7.41,1.36579 -8.306,1.8514 -16.103,4.55425 -19.346,6.60015 -0.8099998,0.5114 -1.3589998,0.9536 -1.5569998,1.484 -0.1,0.2653 -0.06,0.5859 0.111,0.8165 0.175,0.2306 0.442,0.3813 0.793,0.4997 1.4059998,0.4736 4.3499998,0.4873 9.5299998,-0.053 2.745,-0.2863 5.166,-0.2559 7.353,-0.027 -1.864,1.6198 -3.719,3.3568 -5.498,5.1542 -5.987,6.0482 -11.086,12.5376 -12.7079998,16.0119 -0.4060001,0.8686 -0.6250001,1.538 -0.5030001,2.0907 0.06,0.2764 0.2580001,0.5264 0.5290001,0.6257 0.272,0.099 0.583,0.079 0.943,-0.012 1.4379998,-0.3616 3.9229998,-1.9367 7.9879998,-5.1923 2.155,-1.7253 4.205,-3.0121 6.17,-4.0021 -0.692,2.3707 -1.314,4.8349 -1.839,7.3098 -1.767,8.3246 -2.548,16.5385 -2.033,20.3382 0.128,0.9499 0.305,1.6339 0.705,2.0334 0.2,0.1998 0.503,0.304 0.786,0.2404 0.283,-0.064 0.533,-0.2484 0.786,-0.5189 1.015,-1.0819 2.25,-3.7498 3.91,-8.6869 0.88,-2.6151 1.913,-4.8048 3.029,-6.6993 0.7,2.3678 1.512,4.7767 2.408,7.1418 3.015,7.9582 6.796,15.2908 9.281,18.2095 0.622,0.7296 1.142,1.2081 1.695,1.3276 0.276,0.06 0.587,-0.015 0.79,-0.2213 0.204,-0.2063 0.314,-0.4975 0.381,-0.8622 0.269,-1.4588 -0.135,-4.3722 -1.407,-9.4233 -0.674,-2.676 -0.992,-5.0772 -1.076,-7.2753 1.868,1.6144 3.853,3.2058 5.886,4.7116 6.839,5.065 13.987,9.1859 17.656,10.2969 0.918,0.2778 1.611,0.4007 2.141,0.2022 0.265,-0.099 0.486,-0.3307 0.545,-0.6142 0.06,-0.2835 0,-0.5839 -0.144,-0.9271 -0.563,-1.3724 -2.479,-3.6111 -6.28,-7.1723 -2.014,-1.8861 -3.575,-3.7328 -4.834,-5.5357 2.444,0.3475 4.973,0.6107 7.496,0.7782 8.492,0.5638 16.731,0.1681 20.419,-0.8812 0.922,-0.2624 1.573,-0.5347 1.911,-0.9881 0.17,-0.2268 0.229,-0.542 0.127,-0.8127 -0.104,-0.2706 -0.319,-0.4893 -0.623,-0.7019 -1.214,-0.8505 -4.037,-1.6954 -9.16,-2.6363 -2.713,-0.4982 -5.024,-1.2089 -7.057,-2.0448 2.243,-1.0289 4.513,-2.1726 6.725,-3.3955 7.448,-4.1165 14.168,-8.9044 16.703,-11.781 0.633,-0.7191 1.032,-1.3011 1.072,-1.8656 0.01,-0.2822 -0.1,-0.5796 -0.332,-0.7515 -0.233,-0.1719 -0.533,-0.2372 -0.904,-0.2518 -1.483,-0.058 -4.311,0.7533 -9.13,2.7316 -2.552,1.0481 -4.882,1.7058 -7.046,2.1021 1.332,-2.0801 2.621,-4.27 3.823,-6.4971 4.04,-7.4898 7.102,-15.1514 7.679,-18.94192 0.145,-0.94763 0.17,-1.65164 -0.103,-2.1479 -0.136,-0.24812 -0.397,-0.43544 -0.687,-0.45399 -0.289,-0.0186 -0.577,0.0866 -0.896,0.27468 -1.278,0.75221 -3.219,2.9679 -6.204,7.23723 -1.58,2.2601 -3.187,4.0675 -4.79,5.57 0,-2.4678 -0.105,-5.0067 -0.298,-7.5271 -0.651,-8.48517 -2.214,-16.5855 -3.778,-20.08649 -0.391,-0.87523 -0.754,-1.48065 -1.251,-1.75113 -0.248,-0.13524 -0.567,-0.15212 -0.821,-0.0114 -0.253,0.14066 -0.438,0.38625 -0.605,0.71723 -0.669,1.32396 -1.107,4.23746 -1.31,9.44234 -0.106,2.75666 -0.48,5.14688 -1.018,7.27919 -1.338,-2.07466 -2.793,-4.15993 -4.319,-6.17662 -5.134,-6.7865 -10.831,-12.75223 -14.039,-14.85215 -0.802,-0.52498 -1.435,-0.83852 -1.999,-0.79736 z m 0.05,0.62569 c 0.246,-0.018 0.851,0.19806 1.61,0.69435 3.033,1.98515 8.773,7.96217 13.879,14.71099 1.64,2.16862 3.203,4.41713 4.612,6.64587 -0.275,0.96571 -0.586,1.8726 -0.934,2.71634 -0.156,-0.21012 -0.317,-0.42095 -0.496,-0.62948 -2.355,-2.74296 -6.681,-5.38278 -11.667,-7.71412 -0.717,-2.2902 -1.776,-4.73543 -3.319,-7.35549 -2.629,-4.46349 -3.798,-7.19774 -3.922,-8.3932 -0.03,-0.29886 0,-0.48729 0.05,-0.56845 0.04,-0.0811 0.06,-0.0978 0.187,-0.10681 z m 23.646,4.28054 c 0.03,0.001 0.06,0.0162 0.118,0.0458 0.217,0.11807 0.607,0.62612 0.976,1.45353 1.479,3.30969 3.081,11.44241 3.728,19.88043 0.208,2.712 0.302,5.4469 0.282,8.0842 -0.753,0.6629 -1.505,1.2569 -2.254,1.7778 -0.02,-0.2612 -0.03,-0.525 -0.08,-0.7973 -0.497,-3.5808 -2.708,-8.1425 -5.642,-12.79965 0.634,-2.31406 1.065,-4.94301 1.182,-7.98118 0.202,-5.17652 0.698,-8.10635 1.24,-9.1791 0.136,-0.2682 0.271,-0.40927 0.352,-0.45399 0.04,-0.0224 0.06,-0.0318 0.09,-0.0306 z m -44.244,4.64295 c 3.625,0.0304 11.684,1.95497 19.628,4.87186 2.554,0.9377 5.083,1.98803 7.474,3.10168 0.289,0.95806 0.521,1.8895 0.683,2.78502 -0.245,-0.0928 -0.495,-0.18057 -0.759,-0.25944 -3.463,-1.0343 -8.529,-0.91706 -13.982,-0.18311 -1.842,-1.53979 -4.055,-3.02089 -6.772,-4.39117 -4.625,-2.33331 -7.086,-4.00195 -7.836,-4.94055 -0.188,-0.23464 -0.26,-0.41559 -0.267,-0.5074 0,-0.0918 0,-0.1166 0.103,-0.19076 0.198,-0.14831 0.822,-0.29372 1.728,-0.28613 z m 27.858,8.3207 c 4.728,2.26262 8.776,4.79225 10.934,7.30591 0.251,0.29245 0.469,0.5836 0.668,0.8736 -1.106,2.447 -2.487,4.4009 -4.014,5.9173 -3.048,3.0257 -6.625,4.4279 -9.484,5.0893 -0.284,-0.1546 -0.599,-0.3207 -0.798,-0.4387 -0.03,-0.017 -0.03,-0.018 -0.06,-0.034 0.635,-0.8063 1.181,-1.5208 1.942,-2.4608 3.29,-4.0663 4.645,-7.1306 4.483,-9.46901 -0.08,-1.16922 -0.558,-2.14671 -1.343,-2.90712 -0.473,-0.45846 -1.066,-0.83234 -1.736,-1.14833 -0.144,-0.8834 -0.331,-1.78698 -0.595,-2.7278 z m -7.935,2.06398 c 2.695,-0.0474 5.078,0.16587 6.924,0.71723 0.371,0.11075 0.713,0.23636 1.038,0.37388 0.393,2.65672 0.286,5.04772 -0.18,7.14952 -0.927,4.1916 -3.175,7.3055 -5.223,9.408 -0.324,0.024 -0.683,0.053 -0.915,0.061 -0.03,0.001 -0.03,0 -0.06,0 0.1,-1.0215 0.173,-1.9184 0.306,-3.1208 0.569,-5.1994 0.05,-8.5089 -1.351,-10.38846 -0.7,-0.93981 -1.63,-1.505 -2.701,-1.72061 -0.645,-0.12993 -1.345,-0.12302 -2.079,-0.0267 -0.598,-0.66415 -1.244,-1.32428 -1.972,-1.9724 2.174,-0.27283 4.279,-0.45036 6.218,-0.48452 z m -7.047,0.59897 c 0.763,0.65118 1.461,1.30904 2.083,1.97621 -0.257,0.0547 -0.516,0.11415 -0.782,0.19076 -3.473,1.00224 -7.669,3.84249 -11.861,7.40889 -2.382,-0.2995 -5.047,-0.3539 -8.073,-0.038 -5.153,0.5377 -8.124,0.4639 -9.2629998,0.08 -0.285,-0.096 -0.44,-0.209 -0.496,-0.2823 -0.06,-0.073 -0.06,-0.098 -0.02,-0.2137 0.08,-0.2315 0.535,-0.6915 1.3009998,-1.175 3.065,-1.934 10.883,-4.67507 19.144,-6.51617 2.655,-0.59175 5.353,-1.07476 7.965,-1.43066 z m 48.963,0.77827 c 0.09,0.006 0.116,0.0176 0.175,0.1259 0.119,0.21665 0.175,0.85527 0.03,1.75113 -0.546,3.58336 -3.596,11.28766 -7.614,18.73586 -1.292,2.3946 -2.693,4.7502 -4.136,6.9588 -0.99,0.1499 -1.944,0.2453 -2.854,0.2785 0.128,-0.2299 0.251,-0.463 0.366,-0.7135 1.517,-3.2809 2.122,-8.3149 2.171,-13.8182 1.785,-1.6036 3.569,-3.5851 5.311,-6.0774 2.968,-4.24611 4.969,-6.44467 6.005,-7.05414 0.259,-0.15237 0.446,-0.19285 0.538,-0.18695 z m -33.279,0.0344 c 0.46,0.24985 0.862,0.53236 1.19,0.85077 0.686,0.66469 1.085,1.47227 1.156,2.4989 0.142,2.05322 -1.101,5.02352 -4.345,9.03412 -0.781,0.9642 -1.347,1.7003 -1.996,2.5256 0,0 -0.01,-0.01 -0.01,-0.011 -0.01,-0.01 -0.02,-0.014 -0.05,-0.023 1.595,-2.0251 3.097,-4.6451 3.82,-7.9125 0.456,-2.0653 0.572,-4.39619 0.24,-6.96256 z m -11.663,1.60235 c 0.255,0.0115 0.499,0.0406 0.733,0.0877 0.936,0.18846 1.708,0.65127 2.323,1.47644 1.23,1.6504 1.789,4.8178 1.229,9.9459 -0.135,1.2348 -0.213,2.1621 -0.314,3.2085 0,0 -0.01,0 -0.01,0 -0.02,10e-4 -0.03,10e-4 -0.06,0 0.247,-2.5662 0.09,-5.5813 -1.065,-8.7213 -0.732,-1.985 -1.899,-4.00645 -3.567,-5.98583 0.252,-0.0188 0.497,-0.0259 0.732,-0.0153 z m -1.468,0.11062 c 1.765,2.02162 2.967,4.08912 3.711,6.10792 1.486,4.0292 1.281,7.8673 0.694,10.7433 -0.26,0.1954 -0.544,0.4129 -0.735,0.5456 -0.03,0.018 -0.03,0.017 -0.06,0.034 -0.47,-0.9117 -0.891,-1.707 -1.43,-2.7888 -2.333,-4.6818 -4.559,-7.1839 -6.753,-8.0079 -1.097,-0.412 -2.187,-0.3824 -3.205,0.015 -0.613,0.2398 -1.196,0.6203 -1.763,1.0987 -0.863,-0.2356 -1.763,-0.44 -2.727,-0.5913 4.021,-3.3601 8.003,-5.99448 11.186,-6.91295 0.372,-0.10743 0.727,-0.18427 1.076,-0.24418 z m 25.717,0.32048 c 2.755,4.46044 4.793,8.77754 5.249,12.05954 0.06,0.383 0.08,0.7464 0.09,1.0987 -2.253,1.4605 -4.469,2.3581 -6.573,2.8079 -4.2,0.8977 -7.968,0.1429 -10.732,-0.8469 -0.155,-0.2834 -0.331,-0.5944 -0.435,-0.8012 -0.02,-0.031 -0.02,-0.032 -0.03,-0.061 0.971,-0.3355 1.82,-0.6387 2.968,-1.0186 4.966,-1.6423 7.761,-3.4885 8.889,-5.5434 0.565,-1.0274 0.688,-2.1103 0.439,-3.1741 -0.149,-0.6411 -0.443,-1.2722 -0.835,-1.8999 0.356,-0.82197 0.685,-1.6861 0.973,-2.62099 z m -1.29,3.30384 c 0.253,0.4599 0.438,0.9156 0.542,1.362 0.217,0.9299 0.114,1.8257 -0.381,2.7278 -0.991,1.8042 -3.637,3.6299 -8.535,5.2496 -1.178,0.3896 -2.052,0.7054 -3.044,1.0491 0,0 -0.01,-0.019 -0.01,-0.023 0,-0.014 -0.02,-0.028 -0.03,-0.046 2.437,-0.8412 5.114,-2.2318 7.489,-4.5895 1.501,-1.4904 2.86,-3.3911 3.968,-5.7303 z m -30.619,3.3382 c 0.456,0 0.922,0.079 1.403,0.2595 1.927,0.7235 4.113,3.0851 6.414,7.7026 0.553,1.1105 0.987,1.9319 1.468,2.8652 0,0 -0.02,0.01 -0.02,0.011 -0.01,0.01 -0.02,0.02 -0.03,0.034 -1.178,-2.2933 -2.938,-4.7442 -5.612,-6.7604 -1.688,-1.2734 -3.761,-2.346 -6.234,-3.1093 0.42,-0.3155 0.841,-0.5656 1.267,-0.7325 0.444,-0.1738 0.894,-0.2661 1.35,-0.2709 z m -6.7,0.7363 c 0.992,0.1351 1.933,0.3135 2.816,0.538 -0.186,0.1838 -0.369,0.3734 -0.549,0.5799 -2.381,2.7215 -4.381,7.3824 -5.979,12.6508 -2.164,1.0356 -4.433,2.4299 -6.806,4.3301 -4.044,3.238 -6.587,4.7811 -7.7519998,5.0741 -0.291,0.073 -0.482,0.062 -0.569,0.031 -0.09,-0.032 -0.107,-0.047 -0.133,-0.1679 -0.06,-0.2413 0.08,-0.8728 0.461,-1.6939 1.5339998,-3.2844 6.6289998,-9.818 12.5819998,-15.8326 1.915,-1.934 3.922,-3.7961 5.929,-5.509 z m 3.506,0.7478 c 2.582,0.7459 4.713,1.8316 6.433,3.1284 3.429,2.5873 5.325,5.9306 6.386,8.6679 -0.113,0.3021 -0.232,0.6374 -0.321,0.8507 -0.01,0.031 -0.01,0.032 -0.02,0.061 -0.889,-0.5134 -1.673,-0.9562 -2.713,-1.5756 -4.493,-2.6776 -7.719,-3.5796 -10.01,-3.0864 -1.147,0.2466 -2.045,0.8588 -2.686,1.7435 -0.387,0.5333 -0.672,1.1727 -0.889,1.8808 -0.853,0.2681 -1.721,0.583 -2.613,0.9767 1.566,-5.0022 3.491,-9.3712 5.672,-11.865 0.254,-0.2897 0.509,-0.5448 0.767,-0.782 z m 43.302,3.7006 c -0.1,5.2391 -0.713,9.9726 -2.103,12.979 -0.162,0.3515 -0.336,0.6708 -0.519,0.9728 -2.684,0.011 -5.032,-0.4347 -7.046,-1.1941 -4.018,-1.5155 -6.782,-4.1895 -8.572,-6.5162 0.02,-0.3223 0.04,-0.678 0.07,-0.908 0,-0.033 0,-0.034 0,-0.065 0.997,0.2422 1.873,0.4426 3.044,0.744 5.066,1.3033 8.417,1.2638 10.476,0.145 1.03,-0.5595 1.721,-1.4008 2.087,-2.4303 0.221,-0.6206 0.311,-1.3156 0.32,-2.0563 0.745,-0.498 1.49,-1.0407 2.237,-1.671 z m -25.229,1.4994 c 0,0 0.01,0.022 0.01,0.027 0,0.01 0.02,0.022 0.03,0.031 -0.172,0.2203 -0.387,0.4881 -0.55,0.6982 -0.06,0.01 -0.128,0.02 -0.187,0.027 0.229,-0.2505 0.457,-0.507 0.687,-0.7822 z m 0.514,0.4807 c 0.03,0.031 0.09,0.079 0.127,0.1144 -0.09,0.015 -0.156,0.02 -0.242,0.034 0.04,-0.046 0.08,-0.1024 0.115,-0.1488 z m 3.186,0.015 c 0,0.01 0,0.028 0,0.034 0,0.014 0,0.033 0.01,0.046 -0.265,0.093 -0.592,0.1972 -0.843,0.2861 -0.06,-0.026 -0.119,-0.054 -0.172,-0.08 0.33,-0.087 0.661,-0.1783 1.003,-0.2861 z m 18.66,0.08 c -0.04,0.5241 -0.129,1.0058 -0.283,1.4383 -0.32,0.8998 -0.889,1.5995 -1.793,2.0906 -1.808,0.9824 -5.022,1.087 -10.018,-0.1984 -1.202,-0.3091 -2.108,-0.5194 -3.129,-0.7668 0,0 0,-0.015 0,-0.019 0,-0.016 0,-0.032 0,-0.053 2.505,0.6101 5.509,0.8865 8.782,0.187 2.069,-0.4423 4.239,-1.3086 6.436,-2.6783 z m -21.128,0.5493 c 0.06,0.058 0.176,0.17 0.243,0.2328 -0.318,0.1157 -0.541,0.2042 -0.834,0.3128 -0.382,-0.076 -0.609,-0.1154 -0.928,-0.1755 0.03,-0.045 0.09,-0.1071 0.122,-0.1526 0.387,-0.052 0.739,-0.086 1.175,-0.1678 0.07,-0.013 0.15,-0.035 0.222,-0.05 z m 2.639,0.053 c 0.01,0.046 0.03,0.1123 0.05,0.1641 -0.08,-0.035 -0.142,-0.069 -0.22,-0.103 0.06,-0.019 0.12,-0.042 0.175,-0.061 z m -1.041,0.3586 c 0.355,0.166 0.67,0.3281 1.084,0.496 0.06,0.027 0.144,0.053 0.214,0.08 0.02,0.082 0.06,0.2356 0.08,0.3243 -0.33,-0.075 -0.564,-0.1197 -0.87,-0.1869 -0.28,-0.2703 -0.45,-0.425 -0.687,-0.6486 0.06,-0.019 0.128,-0.046 0.18,-0.065 z m -6.211,0.046 c 0,0 0.02,0.01 0.03,0.011 0.01,0 0.03,0 0.04,0.01 -0.02,0.2787 -0.06,0.6201 -0.09,0.8852 -0.05,0.038 -0.1,0.089 -0.142,0.1259 0.06,-0.3349 0.112,-0.6743 0.156,-1.0301 z m 0.695,0.1221 c 0.05,0.01 0.112,0.019 0.163,0.027 -0.06,0.06 -0.118,0.1025 -0.183,0.1603 0,-0.058 0.01,-0.1283 0.02,-0.187 z m 4.669,0.1298 c 0.06,0.05 0.109,0.104 0.164,0.1564 -0.114,-0.024 -0.256,-0.057 -0.367,-0.08 0.08,-0.028 0.124,-0.048 0.203,-0.076 z m -3.719,0.027 c 0.08,0.014 0.24,0.045 0.331,0.061 -0.205,0.2706 -0.345,0.4663 -0.534,0.7172 -0.362,0.1419 -0.572,0.2328 -0.873,0.3548 0,-0.058 0.01,-0.14 0.01,-0.1984 0.296,-0.2519 0.574,-0.4701 0.897,-0.7744 0.06,-0.049 0.107,-0.1094 0.16,-0.1603 z m 1.018,0.1907 c 0.07,0.013 0.147,0.028 0.221,0.042 -0.109,0.042 -0.246,0.093 -0.351,0.1335 0.06,-0.067 0.08,-0.1077 0.13,-0.1755 z m 1.412,0.2671 c 0,0 0,0 0,0 0.633,0.1274 1.529,0.3309 2.335,0.5074 0.463,0.4491 1.108,1.1028 1.69,1.6862 0,10e-4 0,0 0,0 0.147,0.6269 0.333,1.5243 0.507,2.3272 0,0 0,0 0,0 -0.216,0.6085 -0.546,1.4673 -0.836,2.2395 -0.51,0.395 -1.25,0.9412 -1.911,1.4345 0,6e-4 0,-6e-4 0,0 -0.642,0.056 -1.557,0.1142 -2.377,0.1716 0,-6e-4 0,6e-4 0,0 -0.57,-0.3002 -1.372,-0.749 -2.094,-1.1445 -0.318,-0.5625 -0.753,-1.3729 -1.148,-2.0983 0,0 0,0 0,0 0.03,-0.6444 0.111,-1.5588 0.172,-2.3806 0.379,-0.5228 0.935,-1.2521 1.431,-1.9113 0.601,-0.2348 1.463,-0.5488 2.235,-0.8355 z m 4.848,0.2975 c 0.324,0.1045 0.65,0.2071 0.997,0.3014 0,0.01 -0.01,0.021 -0.02,0.027 0,0.012 -0.01,0.03 -0.01,0.042 -0.272,-0.065 -0.605,-0.1491 -0.863,-0.2098 -0.03,-0.052 -0.07,-0.1099 -0.102,-0.1602 z m -1.376,0.454 c 0.08,0.018 0.128,0.027 0.209,0.046 0.02,0.071 0.04,0.1465 0.06,0.2213 -0.08,-0.083 -0.185,-0.1874 -0.267,-0.267 z m 0.896,0.2099 c 0.06,0.013 0.135,0.033 0.191,0.046 0.207,0.3295 0.385,0.6367 0.641,0.9995 0.04,0.058 0.09,0.1205 0.133,0.1793 -0.02,0.081 -0.08,0.2324 -0.107,0.3205 -0.239,-0.2427 -0.411,-0.4106 -0.633,-0.6333 -0.09,-0.3759 -0.147,-0.5978 -0.225,-0.9118 z m -22.448,0.076 c 2.005,-0.1 4.874,0.8061 8.751,3.1169 1.067,0.6353 1.876,1.0926 2.785,1.6176 0,0 0,0.016 0,0.019 0,0.015 -0.01,0.029 -0.02,0.05 -2.232,-1.2912 -5.036,-2.4044 -8.374,-2.6553 -2.109,-0.1586 -4.433,0.06 -6.928,0.7554 0.182,-0.4922 0.402,-0.9297 0.672,-1.3009 0.56,-0.7733 1.305,-1.2828 2.312,-1.4994 0.251,-0.054 0.518,-0.089 0.805,-0.103 z m 23.524,0.1869 c 0.06,0.013 0.125,0.028 0.183,0.042 -0.01,0.045 -0.03,0.1093 -0.06,0.1603 -0.05,-0.072 -0.08,-0.1313 -0.13,-0.2022 z m -8.805,0.069 c -0.07,0.094 -0.159,0.2071 -0.226,0.2976 0,-0.082 0,-0.1302 0.02,-0.2136 0.06,-0.028 0.139,-0.055 0.21,-0.084 z m -0.855,0.3472 c -0.03,0.3376 -0.04,0.5771 -0.06,0.8889 -0.226,0.3139 -0.355,0.5059 -0.541,0.7707 -0.03,-0.051 -0.06,-0.124 -0.09,-0.1755 0.113,-0.3727 0.229,-0.7058 0.336,-1.1369 0.02,-0.07 0.03,-0.1499 0.05,-0.2213 0.08,-0.033 0.227,-0.09 0.312,-0.1259 z m -1.045,0.4425 c -0.02,0.086 -0.05,0.1497 -0.07,0.2328 -0.02,-0.051 -0.06,-0.1128 -0.08,-0.1641 0.04,-0.019 0.104,-0.047 0.152,-0.069 z m -0.733,0.3167 c 0.129,0.2482 0.285,0.5542 0.408,0.7897 -0.02,0.058 -0.03,0.1272 -0.06,0.1832 -0.133,-0.3128 -0.273,-0.6267 -0.427,-0.95 0,0 0.03,-0.01 0.03,-0.01 0.01,0 0.03,-0.011 0.04,-0.015 z m 10.842,0.618 c 0.06,0.058 0.09,0.09 0.149,0.1488 -0.02,0.068 -0.04,0.1421 -0.07,0.2137 -0.02,-0.1132 -0.06,-0.2536 -0.08,-0.3625 z m 1.404,0.3549 c 0.218,0.264 0.438,0.5295 0.679,0.7973 0,0 -0.02,0.012 -0.03,0.015 -0.01,0.01 -0.02,0.019 -0.04,0.027 -0.194,-0.2021 -0.429,-0.4533 -0.615,-0.6447 0,-0.062 0,-0.1346 0,-0.1946 z m -0.762,0.3052 c 0.04,0.041 0.1,0.099 0.137,0.1411 0,0.3889 -0.02,0.7398 0,1.1827 0,0.072 0.01,0.1523 0.01,0.2251 -0.06,0.053 -0.189,0.1522 -0.26,0.2098 -0.07,-0.3327 -0.124,-0.567 -0.19,-0.8736 0.128,-0.3628 0.197,-0.58 0.301,-0.8851 z m -9.858,0.065 c 0,0.1155 -0.02,0.2588 -0.02,0.37 -0.04,-0.073 -0.07,-0.1126 -0.106,-0.1869 0.04,-0.059 0.09,-0.1214 0.13,-0.1831 z m -12.46,0.023 c 0.629,-0.016 1.242,0 1.838,0.046 4.283,0.322 7.688,2.1095 10.061,3.838 0.07,0.3148 0.149,0.6618 0.19,0.8889 0,0.033 0,0.034 0.01,0.065 -1.025,0.049 -1.923,0.1041 -3.132,0.1449 -5.228,0.1767 -8.43,1.1617 -10.092,2.8156 -0.83,0.8269 -1.258,1.8277 -1.319,2.9185 -0.03,0.6571 0.06,1.3475 0.267,2.0602 -0.572,0.6863 -1.13,1.4221 -1.667,2.2356 -1.386,-5.0549 -2.131,-9.7706 -1.645,-13.0476 0.06,-0.3823 0.136,-0.7352 0.225,-1.0759 1.86,-0.5544 3.623,-0.8479 5.262,-0.8889 z m 23.08,0.7134 c 0.04,0.042 0.09,0.091 0.13,0.1335 -0.03,0.03 -0.09,0.073 -0.13,0.1069 0,-0.088 0,-0.155 0,-0.2404 z m -11.151,0.019 c 0.16,0.2987 0.278,0.5072 0.427,0.7821 -0.02,0.3859 -0.03,0.6152 -0.04,0.9385 -0.05,-0.028 -0.118,-0.067 -0.167,-0.095 -0.107,-0.3751 -0.189,-0.7199 -0.333,-1.1407 -0.02,-0.069 -0.06,-0.1439 -0.08,-0.2137 0.05,-0.07 0.143,-0.1956 0.195,-0.2708 z m 12.254,0.1221 c 1.778,1.8673 4.156,3.7253 7.287,4.9062 1.98,0.7468 4.274,1.1893 6.863,1.2246 -0.313,0.4223 -0.651,0.7795 -1.015,1.0606 -0.755,0.5841 -1.613,0.8616 -2.64,0.7859 -2.053,-0.1513 -4.812,-1.799 -8.321,-5.5814 -0.844,-0.9102 -1.495,-1.5747 -2.22,-2.3349 0,0 0.01,-0.015 0.01,-0.019 0.02,-0.013 0.02,-0.024 0.03,-0.042 z m -30.139,0.2327 c -0.06,0.2559 -0.112,0.5135 -0.152,0.7859 -0.532,3.5755 0.308,8.5773 1.812,13.8717 -1.262,2.0417 -2.415,4.4426 -3.384,7.3249 -1.652,4.9102 -2.955,7.5853 -3.777,8.4619 -0.207,0.2192 -0.372,0.3117 -0.462,0.3319 -0.09,0.02 -0.118,0.015 -0.206,-0.072 -0.175,-0.1744 -0.405,-0.773 -0.527,-1.671 -0.486,-3.592 0.269,-11.8423 2.026,-20.1208 0.565,-2.6619 1.249,-5.3178 2.011,-7.8438 0.907,-0.4221 1.796,-0.7803 2.659,-1.0682 z m 29.693,0.3167 c 0.708,0.743 1.336,1.3866 2.159,2.2737 3.557,3.8351 6.399,5.6113 8.737,5.7837 1.168,0.086 2.203,-0.2512 3.066,-0.9194 0.522,-0.4028 0.978,-0.9348 1.386,-1.5528 0.893,-0.017 1.818,-0.072 2.785,-0.1983 -2.913,4.3574 -5.991,8.0038 -8.786,9.7818 -0.326,0.2071 -0.646,0.3829 -0.962,0.538 -2.265,-1.4425 -4,-3.0868 -5.283,-4.8147 -2.562,-3.447 -3.446,-7.1891 -3.694,-10.1138 0.195,-0.2597 0.404,-0.5481 0.55,-0.7286 0.02,-0.026 0.02,-0.026 0.04,-0.05 z m -12.445,0.2632 c 0.03,0.084 0.04,0.1503 0.07,0.2327 -0.06,-0.029 -0.113,-0.066 -0.164,-0.095 0.02,-0.039 0.06,-0.093 0.09,-0.1373 z m 48.043,0.057 c 0.301,0.012 0.483,0.079 0.557,0.1335 0.08,0.055 0.09,0.079 0.08,0.2022 -0.01,0.2464 -0.32,0.8119 -0.918,1.4917 -2.398,2.7194 -9.129,7.5538 -16.536,11.6475 -2.38,1.3158 -4.83,2.5389 -7.237,3.6167 -0.917,-0.4102 -1.771,-0.8469 -2.556,-1.3124 0.231,-0.1247 0.461,-0.2525 0.695,-0.4006 3.049,-1.9399 6.28,-5.847 9.296,-10.4495 2.37,-0.3837 4.939,-1.0842 7.753,-2.2395 4.792,-1.9675 7.665,-2.7369 8.866,-2.6896 z m -37.723,0.1679 c 0.02,0.082 0.03,0.13 0.05,0.2136 -0.06,0.045 -0.116,0.094 -0.175,0.1412 0.04,-0.1108 0.09,-0.2481 0.13,-0.3548 z m -10.77,0.4387 c 0.244,0.1399 0.542,0.3144 0.774,0.4464 0.01,0.057 0.04,0.1233 0.06,0.1793 -0.281,-0.1919 -0.571,-0.3799 -0.877,-0.5685 0,-0.01 0.02,-0.018 0.03,-0.023 0,-0.01 0.01,-0.025 0.02,-0.034 z m 2.098,0.2518 c 0.06,0.1 0.122,0.2244 0.176,0.3205 -0.07,-0.04 -0.115,-0.059 -0.188,-0.099 0,-0.071 0,-0.1469 0.01,-0.2213 z m 8.859,0.2175 c 0.01,0.055 0.02,0.1348 0.03,0.1907 -0.215,0.3261 -0.421,0.6154 -0.645,0.9996 -0.04,0.062 -0.07,0.1343 -0.111,0.1984 -0.08,0.01 -0.241,0.024 -0.332,0.034 0.121,-0.3163 0.199,-0.5429 0.309,-0.8355 0.309,-0.2396 0.489,-0.3846 0.744,-0.5876 z m 0.797,0.1602 c 0.04,0.3379 0.08,0.6795 0.141,1.0339 0,6e-4 -0.02,0 -0.03,0 -0.01,6e-4 -0.03,0 -0.04,0 -0.06,-0.2747 -0.116,-0.6128 -0.168,-0.8737 0.03,-0.05 0.06,-0.1121 0.1,-0.1602 z m -9.694,0.5456 c 0.295,0.1647 0.508,0.2768 0.782,0.4272 0.192,0.3364 0.31,0.5328 0.473,0.8126 -0.06,0 -0.137,0 -0.195,0.01 -0.292,-0.258 -0.548,-0.5018 -0.896,-0.7782 -0.06,-0.045 -0.122,-0.092 -0.18,-0.1374 0,-0.084 0.01,-0.2409 0.02,-0.3319 z m 9.103,0.3815 c 0.01,0.057 0.02,0.1258 0.03,0.1831 -0.05,0.01 -0.116,0.012 -0.168,0.019 0.05,-0.076 0.09,-0.1289 0.133,-0.2022 z m -1.881,0.206 c -0.03,0.076 -0.05,0.1209 -0.08,0.1984 -0.07,0.01 -0.148,0.015 -0.222,0.023 0.09,-0.07 0.209,-0.1537 0.298,-0.2213 z m -5.372,0.4196 c 0.1,0.054 0.224,0.1237 0.32,0.1755 -0.08,0 -0.127,0.01 -0.209,0.015 -0.03,-0.061 -0.07,-0.1266 -0.111,-0.1907 z m 8.1,0.092 c 0.486,2.5316 1.483,5.3791 3.479,8.0651 1.261,1.6982 2.951,3.313 5.108,4.7422 -0.49,0.1846 -0.97,0.3036 -1.426,0.3434 -0.952,0.083 -1.822,-0.1484 -2.644,-0.7669 -1.645,-1.237 -3.077,-4.1158 -3.983,-9.1944 -0.218,-1.2211 -0.405,-2.1318 -0.604,-3.1626 0,0 0.02,-0.01 0.02,-0.01 0.02,-0.01 0.03,-0.01 0.05,-0.019 z m -9.981,0.031 c 0.07,0.056 0.117,0.1049 0.183,0.1603 -0.06,0 -0.128,0 -0.187,0.01 0,-0.047 0,-0.1148 0,-0.1679 z m 9.313,0.1908 c 0.194,1.0071 0.371,1.8889 0.584,3.0788 0.919,5.1491 2.35,8.1784 4.223,9.5873 0.936,0.7044 1.99,0.9838 3.078,0.8889 0.657,-0.057 1.327,-0.2578 2.004,-0.557 0.76,0.4685 1.564,0.9189 2.445,1.3353 -4.804,2.0904 -9.365,3.4947 -12.677,3.4793 -0.388,0 -0.751,-0.032 -1.103,-0.072 -1.124,-2.4368 -1.693,-4.7587 -1.839,-6.9053 -0.291,-4.2862 0.992,-7.9083 2.366,-10.5029 0.302,-0.1131 0.635,-0.2398 0.854,-0.3128 0.03,-0.011 0.03,-0.01 0.06,-0.019 z m -2.392,0.1221 c -0.01,0.053 -0.06,0.1291 -0.07,0.1831 -0.356,0.1585 -0.684,0.2905 -1.08,0.4921 -0.06,0.033 -0.134,0.073 -0.199,0.1069 -0.08,-0.037 -0.215,-0.112 -0.297,-0.1526 0.273,-0.2011 0.462,-0.3509 0.714,-0.538 0.384,-0.034 0.612,-0.059 0.934,-0.092 z m -2.106,0.1831 c -0.06,0.049 -0.104,0.08 -0.171,0.1297 -0.06,-0.032 -0.132,-0.069 -0.199,-0.103 0.116,-0.01 0.258,-0.018 0.37,-0.027 z m -1.583,0.1144 c 0.343,0.18 0.55,0.2798 0.839,0.4273 -0.05,0.033 -0.111,0.078 -0.156,0.1107 -0.385,-0.059 -0.733,-0.1234 -1.175,-0.1679 -0.07,-0.01 -0.153,-0.01 -0.225,-0.015 -0.04,-0.072 -0.121,-0.2111 -0.168,-0.29 0.336,-0.021 0.574,-0.043 0.885,-0.065 z m -2.362,0.145 c 0.05,0.041 0.102,0.086 0.145,0.1259 -0.341,-0.01 -0.686,-0.014 -1.045,-0.01 0,-0.01 0,-0.028 0,-0.034 0,-0.012 0,-0.03 0,-0.042 0.281,-0.014 0.626,-0.027 0.893,-0.042 z m -1.534,0.069 c 0,0 0,0.019 0,0.023 0,0.016 0,0.033 0.01,0.053 -2.575,0.1204 -5.537,0.6995 -8.481,2.2929 -1.859,1.0065 -3.696,2.4451 -5.417,4.3759 -0.112,-0.5101 -0.163,-0.9978 -0.138,-1.4536 0.06,-0.9534 0.405,-1.7842 1.134,-2.5103 1.458,-1.4521 4.511,-2.4582 9.667,-2.6324 1.241,-0.042 2.17,-0.099 3.22,-0.1488 z m 8.176,0.057 c -0.15,0.3069 -0.299,0.619 -0.443,0.95 0,0 -0.01,-0.019 -0.02,-0.023 -0.01,-0.01 -0.03,-0.013 -0.04,-0.019 0.104,-0.2608 0.235,-0.5796 0.333,-0.8279 0.06,-0.024 0.12,-0.057 0.175,-0.08 z m -1.007,0.4616 c -0.02,0.052 -0.05,0.1151 -0.07,0.1679 -0.04,-0.019 -0.102,-0.046 -0.149,-0.069 0.08,-0.039 0.141,-0.062 0.218,-0.099 z m -6.31,0.1488 c 0.527,-0.01 1.028,0.014 1.511,0.042 0.229,0.2289 0.483,0.479 0.641,0.6486 0.02,0.025 0.02,0.026 0.05,0.05 -0.835,0.5948 -1.561,1.1245 -2.556,1.8122 -4.301,2.9748 -6.467,5.5353 -6.97,7.8247 -0.251,1.1447 -0.06,2.216 0.473,3.1665 0.325,0.573 0.786,1.0991 1.34,1.5909 -0.111,0.8862 -0.186,1.8069 -0.199,2.7813 -3.899,-3.5026 -7.069,-7.0677 -8.431,-10.0872 -0.159,-0.3524 -0.289,-0.691 -0.397,-1.0262 1.75,-2.0373 3.627,-3.5228 5.52,-4.5476 3.154,-1.7077 6.348,-2.2291 9.023,-2.2547 z m 2.735,0.1526 c 0.09,0.01 0.155,0.024 0.241,0.034 -0.05,0.034 -0.106,0.073 -0.153,0.1069 -0.02,-0.039 -0.06,-0.097 -0.09,-0.1412 z m 1.149,0.1641 c 0.06,0.01 0.126,0.017 0.183,0.027 -0.292,0.1763 -0.583,0.3569 -0.881,0.557 0,-0.01 0,-0.025 -0.01,-0.031 0,-0.012 -0.02,-0.027 -0.02,-0.038 0.228,-0.1641 0.515,-0.3582 0.732,-0.515 z m 1.121,0.2022 c 0.315,0.068 0.666,0.1413 0.889,0.1984 0.03,0.01 0.03,0.01 0.06,0.015 -0.381,0.9529 -0.705,1.7938 -1.17,2.9109 -2.012,4.8285 -2.445,8.1484 -1.63,10.3465 0.407,1.099 1.139,1.9025 2.106,2.4111 0.583,0.3066 1.257,0.4998 1.987,0.6143 0.388,0.8059 0.823,1.6218 1.34,2.4492 -5.173,-0.839 -9.77,-2.1258 -12.549,-3.9295 -0.324,-0.2107 -0.615,-0.4289 -0.888,-0.6524 0.371,-2.6583 1.148,-4.9214 2.186,-6.8061 2.073,-3.7631 5.11,-6.1175 7.668,-7.5577 z m 1.56,0.3777 c 0,10e-4 0.02,0 0.02,0 0.02,0 0.03,0.01 0.06,0.011 -0.96,2.3922 -1.661,5.3298 -1.435,8.6679 0.144,2.1112 0.689,4.3793 1.733,6.7489 -0.513,-0.1102 -0.979,-0.2711 -1.386,-0.4846 -0.844,-0.4445 -1.454,-1.1066 -1.811,-2.0716 -0.716,-1.9299 -0.363,-5.1264 1.621,-9.8887 0.476,-1.1448 0.812,-2.0126 1.202,-2.9872 z m -3.941,0.309 c 0,0 0.01,0.013 0.02,0.015 0.01,0.011 0.02,0.024 0.03,0.038 -2.101,1.4936 -4.279,3.5853 -5.894,6.5162 -1.022,1.8536 -1.786,4.0577 -2.19,6.6154 -0.372,-0.3704 -0.678,-0.7568 -0.904,-1.156 -0.471,-0.831 -0.625,-1.7189 -0.405,-2.724 0.442,-2.0102 2.468,-4.5092 6.711,-7.4432 1.021,-0.7057 1.774,-1.2525 2.628,-1.8618 z m -17.643,6.1423 c 0.09,0.2453 0.184,0.4899 0.296,0.7401 1.486,3.2949 4.896,7.0486 9.023,10.6899 0.04,2.3999 0.371,5.0431 1.114,7.9926 1.265,5.0235 1.618,7.9781 1.4,9.16 -0.06,0.2955 -0.145,0.4647 -0.209,0.5303 -0.06,0.066 -0.09,0.076 -0.211,0.05 -0.241,-0.052 -0.762,-0.4318 -1.35,-1.1216 -2.351,-2.7592 -6.174,-10.1085 -9.171,-18.0225 -0.963,-2.5433 -1.829,-5.1441 -2.552,-7.6798 0.535,-0.8469 1.087,-1.6288 1.66,-2.3386 z m 37.261,6.0278 c 2.2,0.9584 4.741,1.7549 7.733,2.3043 5.095,0.9358 7.927,1.8442 8.913,2.5333 0.246,0.1722 0.363,0.3259 0.396,0.412 0.03,0.086 0.03,0.1147 -0.04,0.2136 -0.149,0.198 -0.709,0.5112 -1.58,0.7592 -3.486,0.9921 -11.761,1.419 -20.205,0.8584 -2.714,-0.1802 -5.438,-0.4749 -8.046,-0.8698 -0.548,-0.8394 -1.03,-1.6686 -1.438,-2.4836 0.261,0.02 0.522,0.037 0.797,0.038 3.614,0.017 8.445,-1.5247 13.471,-3.7655 z m -27.198,2.2242 c 0.209,0.1579 0.422,0.3118 0.652,0.4617 3.033,1.9686 7.931,3.2881 13.373,4.1202 1.333,1.9949 3.038,4.0411 5.257,6.1194 3.78,3.5419 5.671,5.8353 6.127,6.9473 0.113,0.2781 0.129,0.4707 0.111,0.5608 -0.02,0.09 -0.03,0.1131 -0.154,0.1565 -0.231,0.087 -0.867,0.049 -1.735,-0.2137 -3.47,-1.0503 -10.665,-5.1685 -17.466,-10.2053 -2.186,-1.6194 -4.318,-3.3394 -6.298,-5.0817 0,-1.003 0.03,-1.9583 0.133,-2.8652 z" fill-opacity="1" stroke="none" marker="none" visibility="visible" display="inline" overflow="visible" fill="#3f51b5"/></g></svg>